<svg width="1000" height="150" xmlns="http://www.w3.org/2000/svg" version="1.1">
 <g>
  <title>Layer 1</title>
  <g stroke="null" transform="rotate(90 500.5 76)" id="svg_8">
   <rect stroke="null" x="424.00003" y="-424.99701" width="153" height="1002.99704" fill="#311B7C" id="svg_1"/>
   <path stroke="null" d="m522.94006,-426l3.56995,16.75006c3.57007,16.64972 10.70996,50.14981 11.72998,83.54962c1.02002,33.39981 -4.08002,66.8999 -8.15991,100.29971c-4.08002,33.39983 -7.14001,66.89992 -7.85406,100.29971c-0.612,33.39979 1.01996,66.89991 1.73407,100.2997c0.71399,33.39979 0.30591,66.89992 0.50995,100.2997c0.20404,33.39979 0.81604,66.89991 1.01996,100.29971c0.2041,33.3998 -0.20392,66.89992 0.30597,100.29971c0.51007,33.39978 1.93805,66.8999 2.0401,100.29968c0.20398,33.39981 -0.81604,66.89993 -1.836,100.29971c-1.02008,33.39978 -2.03998,66.89996 -2.54999,83.54968l-0.51001,16.75006l-98.94003,0l0,-16.75006c0,-16.64972 0,-50.1499 0,-83.54968c0,-33.39978 0,-66.8999 0,-100.29971c0,-33.39978 0,-66.8999 0,-100.29968c0,-33.3998 0,-66.89992 0,-100.29971c0,-33.3998 0,-66.89992 0,-100.29971c0,-33.39979 0,-66.89991 0,-100.2997c0,-33.39979 0,-66.89991 0,-100.2997c0,-33.3998 0,-66.89989 0,-100.29971c0,-33.39981 0,-66.8999 0,-100.29971c0,-33.39981 0,-66.89987 0,-83.54962l0,-16.75006l98.94003,0z" fill="#291a6d" id="svg_2"/>
   <path stroke="null" d="m522.94006,-426l1.22394,16.75006c1.12207,16.64972 3.57001,50.14981 2.65198,83.54962c-0.81592,33.39981 -4.89594,66.8999 -8.466,100.29971c-3.57001,33.39983 -6.62994,66.89992 -4.89587,100.29971c1.63202,33.39979 8.15991,66.89991 8.77197,100.2997c0.71399,33.39979 -4.38599,66.89992 -5.40607,100.2997c-1.01996,33.39979 2.03998,66.89991 3.57001,100.29971c1.53003,33.3998 1.53003,66.89992 0.71405,100.29971c-0.91797,33.39978 -2.54999,66.8999 -2.54999,100.29968c0,33.39981 1.63202,66.89993 -0.40796,100.29971c-2.04004,33.39978 -7.75208,66.89996 -10.71005,83.54968l-2.85599,16.75006l-80.58005,0l0,-16.75006c0,-16.64972 0,-50.1499 0,-83.54968c0,-33.39978 0,-66.8999 0,-100.29971c0,-33.39978 0,-66.8999 0,-100.29968c0,-33.3998 0,-66.89992 0,-100.29971c0,-33.3998 0,-66.89992 0,-100.29971c0,-33.39979 0,-66.89991 0,-100.2997c0,-33.39979 0,-66.89991 0,-100.2997c0,-33.3998 0,-66.89989 0,-100.29971c0,-33.39981 0,-66.8999 0,-100.29971c0,-33.39981 0,-66.89987 0,-83.54962l0,-16.75006l98.94009,0l-0.00006,0z" fill="#151d61" id="svg_3"/>
   <path stroke="null" d="m487.24002,-426l2.75403,16.75006c2.65198,16.64972 8.16,50.14981 12.03598,83.54962c3.87598,33.39981 6.32401,66.8999 5.60999,100.29971c-0.71399,33.39983 -4.38599,66.89992 -6.83398,100.29971c-2.34601,33.39979 -3.366,66.89991 -3.87601,100.2997c-0.50998,33.39979 -0.50998,66.89992 2.24402,100.2997c2.65198,33.39979 8.16,66.89991 8.26196,100.29971c0.20401,33.3998 -4.89597,66.89992 -9.79196,100.29971c-4.99802,33.39978 -9.69,66.8999 -9.17999,100.29968c0.50998,33.39981 6.22195,66.89993 8.66998,100.29971c2.34601,33.39978 1.32599,66.89996 0.81601,83.54968l-0.51001,16.75006l-73.44,0l0,-16.75006c0,-16.64972 0,-50.1499 0,-83.54968c0,-33.39978 0,-66.8999 0,-100.29971c0,-33.39978 0,-66.8999 0,-100.29968c0,-33.3998 0,-66.89992 0,-100.29971c0,-33.3998 0,-66.89992 0,-100.29971c0,-33.39979 0,-66.89991 0,-100.2997c0,-33.39979 0,-66.89991 0,-100.2997c0,-33.3998 0,-66.89989 0,-100.29971c0,-33.39981 0,-66.8999 0,-100.29971c0,-33.39981 0,-66.89987 0,-83.54962l0,-16.75006l63.23999,0z" fill="#041d53" id="svg_4"/>
   <path stroke="null" d="m492.34003,-426l-2.54999,16.75006c-2.55002,16.64972 -7.65002,50.14981 -8.97598,83.54962c-1.42804,33.39981 1.01999,66.8999 0.10196,100.29971c-0.81598,33.39983 -4.896,66.89992 -6.12,100.29971c-1.12198,33.39979 0.51001,66.89991 2.54999,100.2997c2.04001,33.39979 4.48804,66.89992 5.30402,100.2997c0.81598,33.39979 0.20401,66.89991 1.53,100.29971c1.32599,33.3998 4.79401,66.89992 5.10001,100.29971c0.306,33.39978 -2.34598,66.8999 -3.57001,100.29968c-1.224,33.39981 -0.81598,66.89993 1.22403,100.29971c2.03998,33.39978 5.71198,66.89996 7.64999,83.54968l1.836,16.75006l-72.42001,0l0,-16.75006c0,-16.64972 0,-50.1499 0,-83.54968c0,-33.39978 0,-66.8999 0,-100.29971c0,-33.39978 0,-66.8999 0,-100.29968c0,-33.3998 0,-66.89992 0,-100.29971c0,-33.3998 0,-66.89992 0,-100.29971c0,-33.39979 0,-66.89991 0,-100.2997c0,-33.39979 0,-66.89991 0,-100.2997c0,-33.3998 0,-66.89989 0,-100.29971c0,-33.39981 0,-66.8999 0,-100.29971c0,-33.39981 0,-66.89987 0,-83.54962l0,-16.75006l68.34,0z" fill="#001b43" id="svg_5"/>
   <path stroke="null" d="m462.76004,-426l-1.02002,16.75006c-1.01999,16.64972 -3.06,50.14981 -4.38599,83.54962c-1.42801,33.39981 -2.03998,66.8999 -0.71402,100.29971c1.32599,33.39983 4.79404,66.89992 8.466,100.29971c3.77402,33.39979 7.854,66.89991 8.67001,100.2997c0.918,33.39979 -1.53003,66.89992 -4.69199,100.2997c-3.26401,33.39979 -7.34402,66.89991 -6.63,100.29971c0.61197,33.3998 6.12,66.89992 8.67001,100.29971c2.54999,33.39978 2.14197,66.8999 1.32599,100.29968c-0.81601,33.39981 -2.24402,66.89993 -5.81403,100.29971c-3.57001,33.39978 -9.28198,66.89996 -12.23999,83.54968l-2.85599,16.75006l-27.54001,0l0,-16.75006c0,-16.64972 0,-50.1499 0,-83.54968c0,-33.39978 0,-66.8999 0,-100.29971c0,-33.39978 0,-66.8999 0,-100.29968c0,-33.3998 0,-66.89992 0,-100.29971c0,-33.3998 0,-66.89992 0,-100.29971c0,-33.39979 0,-66.89991 0,-100.2997c0,-33.39979 0,-66.89991 0,-100.2997c0,-33.3998 0,-66.89989 0,-100.29971c0,-33.39981 0,-66.8999 0,-100.29971c0,-33.39981 0,-66.89987 0,-83.54962l0,-16.75006l38.76001,0z" fill="#001733" id="svg_6"/>
   <path stroke="null" d="m438.28003,-426l3.06,16.75006c3.06,16.64972 9.17999,50.14981 10.914,83.54962c1.63199,33.39981 -1.01999,66.8999 -2.03998,100.29971c-1.02002,33.39983 -0.40802,66.89992 -1.73401,100.29971c-1.32599,33.39979 -4.79404,66.89991 -5.30402,100.2997c-0.51001,33.39979 1.93802,66.89992 2.54999,100.2997c0.71402,33.39979 -0.30597,66.89991 -1.32599,100.29971c-1.01999,33.3998 -2.04001,66.89992 -2.34598,100.29971c-0.40802,33.39978 0,66.8999 -0.71402,100.29968c-0.71402,33.39981 -2.34598,66.89993 -0.71402,100.29971c1.73401,33.39978 6.83401,66.89996 9.38403,83.54968l2.54999,16.75006l-28.56,0l0,-16.75006c0,-16.64972 0,-50.1499 0,-83.54968c0,-33.39978 0,-66.8999 0,-100.29971c0,-33.39978 0,-66.8999 0,-100.29968c0,-33.3998 0,-66.89992 0,-100.29971c0,-33.3998 0,-66.89992 0,-100.29971c0,-33.39979 0,-66.89991 0,-100.2997c0,-33.39979 0,-66.89991 0,-100.2997c0,-33.3998 0,-66.89989 0,-100.29971c0,-33.39981 0,-66.8999 0,-100.29971c0,-33.39981 0,-66.89987 0,-83.54962l0,-16.75006l14.28,0z" fill="#001222" id="svg_7"/>
  </g>
 </g>

</svg>