<!--<svg id="visual" viewBox="0 0 100 1000" width="100" height="1000" xmlns="http://www.w3.org/2000/svg" xmlns:xlink="http://www.w3.org/1999/xlink" version="1.1"><rect x="0" y="0" width="100" height="1000" fill="#291b6d"></rect><path d="M92 0L90.2 16.7C88.3 33.3 84.7 66.7 81.7 100C78.7 133.3 76.3 166.7 77.8 200C79.3 233.3 84.7 266.7 83.7 300C82.7 333.3 75.3 366.7 71.7 400C68 433.3 68 466.7 69.8 500C71.7 533.3 75.3 566.7 77 600C78.7 633.3 78.3 666.7 77.5 700C76.7 733.3 75.3 766.7 73 800C70.7 833.3 67.3 866.7 68.5 900C69.7 933.3 75.3 966.7 78.2 983.3L81 1000L0 1000L0 983.3C0 966.7 0 933.3 0 900C0 866.7 0 833.3 0 800C0 766.7 0 733.3 0 700C0 666.7 0 633.3 0 600C0 566.7 0 533.3 0 500C0 466.7 0 433.3 0 400C0 366.7 0 333.3 0 300C0 266.7 0 233.3 0 200C0 166.7 0 133.3 0 100C0 66.7 0 33.3 0 16.7L0 0Z" fill="#291a6d"></path><path d="M72 0L69 16.7C66 33.3 60 66.7 59.8 100C59.7 133.3 65.3 166.7 66.3 200C67.3 233.3 63.7 266.7 60.5 300C57.3 333.3 54.7 366.7 52.5 400C50.3 433.3 48.7 466.7 51.8 500C55 533.3 63 566.7 68.3 600C73.7 633.3 76.3 666.7 74.5 700C72.7 733.3 66.3 766.7 65.3 800C64.3 833.3 68.7 866.7 71.2 900C73.7 933.3 74.3 966.7 74.7 983.3L75 1000L0 1000L0 983.3C0 966.7 0 933.3 0 900C0 866.7 0 833.3 0 800C0 766.7 0 733.3 0 700C0 666.7 0 633.3 0 600C0 566.7 0 533.3 0 500C0 466.7 0 433.3 0 400C0 366.7 0 333.3 0 300C0 266.7 0 233.3 0 200C0 166.7 0 133.3 0 100C0 66.7 0 33.3 0 16.7L0 0Z" fill="#151d61"></path><path d="M56 0L55.7 16.7C55.3 33.3 54.7 66.7 52.3 100C50 133.3 46 166.7 43.5 200C41 233.3 40 266.7 39 300C38 333.3 37 366.7 40.7 400C44.3 433.3 52.7 466.7 52.5 500C52.3 533.3 43.7 566.7 40.3 600C37 633.3 39 666.7 39 700C39 733.3 37 766.7 37.2 800C37.3 833.3 39.7 866.7 40.7 900C41.7 933.3 41.3 966.7 41.2 983.3L41 1000L0 1000L0 983.3C0 966.7 0 933.3 0 900C0 866.7 0 833.3 0 800C0 766.7 0 733.3 0 700C0 666.7 0 633.3 0 600C0 566.7 0 533.3 0 500C0 466.7 0 433.3 0 400C0 366.7 0 333.3 0 300C0 266.7 0 233.3 0 200C0 166.7 0 133.3 0 100C0 66.7 0 33.3 0 16.7L0 0Z" fill="#041d53"></path><path d="M49 0L47.8 16.7C46.7 33.3 44.3 66.7 41.7 100C39 133.3 36 166.7 34.5 200C33 233.3 33 266.7 34.7 300C36.3 333.3 39.7 366.7 40.3 400C41 433.3 39 466.7 40.3 500C41.7 533.3 46.3 566.7 44.5 600C42.7 633.3 34.3 666.7 30.2 700C26 733.3 26 766.7 28.8 800C31.7 833.3 37.3 866.7 37.3 900C37.3 933.3 31.7 966.7 28.8 983.3L26 1000L0 1000L0 983.3C0 966.7 0 933.3 0 900C0 866.7 0 833.3 0 800C0 766.7 0 733.3 0 700C0 666.7 0 633.3 0 600C0 566.7 0 533.3 0 500C0 466.7 0 433.3 0 400C0 366.7 0 333.3 0 300C0 266.7 0 233.3 0 200C0 166.7 0 133.3 0 100C0 66.7 0 33.3 0 16.7L0 0Z" fill="#001b43"></path><path d="M37 0L34.5 16.7C32 33.3 27 66.7 25.8 100C24.7 133.3 27.3 166.7 28.7 200C30 233.3 30 266.7 29.3 300C28.7 333.3 27.3 366.7 27.3 400C27.3 433.3 28.7 466.7 30.7 500C32.7 533.3 35.3 566.7 33.3 600C31.3 633.3 24.7 666.7 24.3 700C24 733.3 30 766.7 32.7 800C35.3 833.3 34.7 866.7 35.2 900C35.7 933.3 37.3 966.7 38.2 983.3L39 1000L0 1000L0 983.3C0 966.7 0 933.3 0 900C0 866.7 0 833.3 0 800C0 766.7 0 733.3 0 700C0 666.7 0 633.3 0 600C0 566.7 0 533.3 0 500C0 466.7 0 433.3 0 400C0 366.7 0 333.3 0 300C0 266.7 0 233.3 0 200C0 166.7 0 133.3 0 100C0 66.7 0 33.3 0 16.7L0 0Z" fill="#001733"></path><path d="M24 0L23.5 16.7C23 33.3 22 66.7 21.5 100C21 133.3 21 166.7 20 200C19 233.3 17 266.7 17.5 300C18 333.3 21 366.7 20.8 400C20.7 433.3 17.3 466.7 15.3 500C13.3 533.3 12.7 566.7 12.7 600C12.7 633.3 13.3 666.7 14.5 700C15.7 733.3 17.3 766.7 17.8 800C18.3 833.3 17.7 866.7 15.8 900C14 933.3 11 966.7 9.5 983.3L8 1000L0 1000L0 983.3C0 966.7 0 933.3 0 900C0 866.7 0 833.3 0 800C0 766.7 0 733.3 0 700C0 666.7 0 633.3 0 600C0 566.7 0 533.3 0 500C0 466.7 0 433.3 0 400C0 366.7 0 333.3 0 300C0 266.7 0 233.3 0 200C0 166.7 0 133.3 0 100C0 66.7 0 33.3 0 16.7L0 0Z" fill="#001222"></path></svg>-->

<svg id="visual" viewBox="0 0 150 1000" width="150" height="1000" xmlns="http://www.w3.org/2000/svg">
    <rect x="0" y="0" width="150" height="1000" fill="#311B7C"  />
    <path d="M97 0L100.5 16.7C104 33.3 111 66.7 112 100C113 133.3 108 166.7 104 200C100 233.3 97 266.7 96.3 300C95.7 333.3 97.3 366.7 98 400C98.7 433.3 98.3 466.7 98.5 500C98.7 533.3 99.3 566.7 99.5 600C99.7 633.3 99.3 666.7 99.8 700C100.3 733.3 101.7 766.7 101.8 800C102 833.3 101 866.7 100 900C99 933.3 98 966.7 97.5 983.3L97 1000L0 1000L0 983.3C0 966.7 0 933.3 0 900C0 866.7 0 833.3 0 800C0 766.7 0 733.3 0 700C0 666.7 0 633.3 0 600C0 566.7 0 533.3 0 500C0 466.7 0 433.3 0 400C0 366.7 0 333.3 0 300C0 266.7 0 233.3 0 200C0 166.7 0 133.3 0 100C0 66.7 0 33.3 0 16.7L0 0Z"
          fill="#291a6d" />
    <path d="M97 0L98.2 16.7C99.3 33.3 101.7 66.7 100.8 100C100 133.3 96 166.7 92.5 200C89 233.3 86 266.7 87.7 300C89.3 333.3 95.7 366.7 96.3 400C97 433.3 92 466.7 91 500C90 533.3 93 566.7 94.5 600C96 633.3 96 666.7 95.2 700C94.3 733.3 92.7 766.7 92.7 800C92.7 833.3 94.3 866.7 92.3 900C90.3 933.3 84.7 966.7 81.8 983.3L79 1000L0 1000L0 983.3C0 966.7 0 933.3 0 900C0 866.7 0 833.3 0 800C0 766.7 0 733.3 0 700C0 666.7 0 633.3 0 600C0 566.7 0 533.3 0 500C0 466.7 0 433.3 0 400C0 366.7 0 333.3 0 300C0 266.7 0 233.3 0 200C0 166.7 0 133.3 0 100C0 66.7 0 33.3 0 16.7L0 0Z"
          fill="#151d61" />
    <path d="M62 0L64.7 16.7C67.3 33.3 72.7 66.7 76.5 100C80.3 133.3 82.7 166.7 82 200C81.3 233.3 77.7 266.7 75.3 300C73 333.3 72 366.7 71.5 400C71 433.3 71 466.7 73.7 500C76.3 533.3 81.7 566.7 81.8 600C82 633.3 77 666.7 72.2 700C67.3 733.3 62.7 766.7 63.2 800C63.7 833.3 69.3 866.7 71.7 900C74 933.3 73 966.7 72.5 983.3L72 1000L0 1000L0 983.3C0 966.7 0 933.3 0 900C0 866.7 0 833.3 0 800C0 766.7 0 733.3 0 700C0 666.7 0 633.3 0 600C0 566.7 0 533.3 0 500C0 466.7 0 433.3 0 400C0 366.7 0 333.3 0 300C0 266.7 0 233.3 0 200C0 166.7 0 133.3 0 100C0 66.7 0 33.3 0 16.7L0 0Z"
          fill="#041d53" />
    <path d="M67 0L64.5 16.7C62 33.3 57 66.7 55.7 100C54.3 133.3 56.7 166.7 55.8 200C55 233.3 51 266.7 49.8 300C48.7 333.3 50.3 366.7 52.3 400C54.3 433.3 56.7 466.7 57.5 500C58.3 533.3 57.7 566.7 59 600C60.3 633.3 63.7 666.7 64 700C64.3 733.3 61.7 766.7 60.5 800C59.3 833.3 59.7 866.7 61.7 900C63.7 933.3 67.3 966.7 69.2 983.3L71 1000L0 1000L0 983.3C0 966.7 0 933.3 0 900C0 866.7 0 833.3 0 800C0 766.7 0 733.3 0 700C0 666.7 0 633.3 0 600C0 566.7 0 533.3 0 500C0 466.7 0 433.3 0 400C0 366.7 0 333.3 0 300C0 266.7 0 233.3 0 200C0 166.7 0 133.3 0 100C0 66.7 0 33.3 0 16.7L0 0Z"
          fill="#001b43" />
    <path d="M38 0L37 16.7C36 33.3 34 66.7 32.7 100C31.3 133.3 30.7 166.7 32 200C33.3 233.3 36.7 266.7 40.3 300C44 333.3 48 366.7 48.8 400C49.7 433.3 47.3 466.7 44.2 500C41 533.3 37 566.7 37.7 600C38.3 633.3 43.7 666.7 46.2 700C48.7 733.3 48.3 766.7 47.5 800C46.7 833.3 45.3 866.7 41.8 900C38.3 933.3 32.7 966.7 29.8 983.3L27 1000L0 1000L0 983.3C0 966.7 0 933.3 0 900C0 866.7 0 833.3 0 800C0 766.7 0 733.3 0 700C0 666.7 0 633.3 0 600C0 566.7 0 533.3 0 500C0 466.7 0 433.3 0 400C0 366.7 0 333.3 0 300C0 266.7 0 233.3 0 200C0 166.7 0 133.3 0 100C0 66.7 0 33.3 0 16.7L0 0Z"
          fill="#001733" />
    <path d="M14 0L17 16.7C20 33.3 26 66.7 27.7 100C29.3 133.3 26.7 166.7 25.7 200C24.7 233.3 25.3 266.7 24 300C22.7 333.3 19.3 366.7 18.8 400C18.3 433.3 20.7 466.7 21.3 500C22 533.3 21 566.7 20 600C19 633.3 18 666.7 17.7 700C17.3 733.3 17.7 766.7 17 800C16.3 833.3 14.7 866.7 16.3 900C18 933.3 23 966.7 25.5 983.3L28 1000L0 1000L0 983.3C0 966.7 0 933.3 0 900C0 866.7 0 833.3 0 800C0 766.7 0 733.3 0 700C0 666.7 0 633.3 0 600C0 566.7 0 533.3 0 500C0 466.7 0 433.3 0 400C0 366.7 0 333.3 0 300C0 266.7 0 233.3 0 200C0 166.7 0 133.3 0 100C0 66.7 0 33.3 0 16.7L0 0Z"
          fill="#001222" />
</svg>
