<svg id="visual" viewBox="0 0 960 540" width="960" height="540" xmlns="http://www.w3.org/2000/svg" xmlns:xlink="http://www.w3.org/1999/xlink" version="1.1"><rect x="0" y="0" width="960" height="540" fill="#001222"></rect><g transform="translate(-15.840360433405237 132.5215807603968)"><path d="M199.4 -387.5C279.8 -298.9 381.1 -288.7 458.2 -237.2C535.3 -185.7 588.1 -92.8 585.5 -1.5C582.9 89.8 524.9 179.7 471.3 271.9C417.7 364.1 368.6 458.8 290.8 447.6C213 436.4 106.5 319.5 12.2 298.4C-82.2 277.3 -164.3 352.1 -193.6 335.3C-222.9 318.5 -199.4 210 -277.1 138.8C-354.9 67.7 -533.9 33.8 -552.3 -10.6C-570.6 -55 -428.2 -110 -369.1 -213.5C-310 -317 -334.3 -469 -286.6 -576.5C-239 -684 -119.5 -747 -30 -695C59.5 -643.1 119 -476.1 199.4 -387.5" fill="#08142F"></path></g></svg>
