<svg id="visual" viewBox="0 0 100 1000" width="100" height="1000" xmlns="http://www.w3.org/2000/svg">
    <rect x="0" y="0" width="100" height="1000" fill="#001122"/>
    <path d="M51 1000L50.5 984.8C50 969.7 49 939.3 45.5 909C42 878.7 36 848.3 33.7 818C31.3 787.7 32.7 757.3 31.5 727C30.3 696.7 26.7 666.3 28.7 636C30.7 605.7 38.3 575.3 39 545.2C39.7 515 33.3 485 34 454.8C34.7 424.7 42.3 394.3 42.8 364C43.3 333.7 36.7 303.3 32.8 273C29 242.7 28 212.3 30.8 182C33.7 151.7 40.3 121.3 39.5 91C38.7 60.7 30.3 30.3 26.2 15.2L22 0L100 0L100 15.2C100 30.3 100 60.7 100 91C100 121.3 100 151.7 100 182C100 212.3 100 242.7 100 273C100 303.3 100 333.7 100 364C100 394.3 100 424.7 100 454.8C100 485 100 515 100 545.2C100 575.3 100 605.7 100 636C100 666.3 100 696.7 100 727C100 757.3 100 787.7 100 818C100 848.3 100 878.7 100 909C100 939.3 100 969.7 100 984.8L100 1000Z"
          fill="#5220ba">/</path>
    <path d="M38 1000L38.2 984.8C38.3 969.7 38.7 939.3 43.5 909C48.3 878.7 57.7 848.3 59.8 818C62 787.7 57 757.3 54.2 727C51.3 696.7 50.7 666.3 50.8 636C51 605.7 52 575.3 51.3 545.2C50.7 515 48.3 485 50.2 454.8C52 424.7 58 394.3 56.8 364C55.7 333.7 47.3 303.3 47.5 273C47.7 242.7 56.3 212.3 56.8 182C57.3 151.7 49.7 121.3 47.5 91C45.3 60.7 48.7 30.3 50.3 15.2L52 0L100 0L100 15.2C100 30.3 100 60.7 100 91C100 121.3 100 151.7 100 182C100 212.3 100 242.7 100 273C100 303.3 100 333.7 100 364C100 394.3 100 424.7 100 454.8C100 485 100 515 100 545.2C100 575.3 100 605.7 100 636C100 666.3 100 696.7 100 727C100 757.3 100 787.7 100 818C100 848.3 100 878.7 100 909C100 939.3 100 969.7 100 984.8L100 1000Z"
          fill="#ef006b"/>
    <path d="M73 1000L73 984.8C73 969.7 73 939.3 71.2 909C69.3 878.7 65.7 848.3 65.3 818C65 787.7 68 757.3 70 727C72 696.7 73 666.3 72.2 636C71.3 605.7 68.7 575.3 68.2 545.2C67.7 515 69.3 485 70.8 454.8C72.3 424.7 73.7 394.3 72.5 364C71.3 333.7 67.7 303.3 65.8 273C64 242.7 64 212.3 65.2 182C66.3 151.7 68.7 121.3 71 91C73.3 60.7 75.7 30.3 76.8 15.2L78 0L100 0L100 15.2C100 30.3 100 60.7 100 91C100 121.3 100 151.7 100 182C100 212.3 100 242.7 100 273C100 303.3 100 333.7 100 364C100 394.3 100 424.7 100 454.8C100 485 100 515 100 545.2C100 575.3 100 605.7 100 636C100 666.3 100 696.7 100 727C100 757.3 100 787.7 100 818C100 848.3 100 878.7 100 909C100 939.3 100 969.7 100 984.8L100 1000Z"
          fill="#fc8409"/>
</svg>
